<?xml version="1.0" encoding="iso-8859-1"?>
<!-- Generator: Adobe Illustrator 19.0.0, SVG Export Plug-In . SVG Version: 6.00 Build 0)  -->
<svg version="1.1" id="Capa_1" xmlns="http://www.w3.org/2000/svg" xmlns:xlink="http://www.w3.org/1999/xlink" x="0px" y="0px"
	 viewBox="0 0 512 512" style="enable-background:new 0 0 512 512;" xml:space="preserve">
<path style="fill:#D7D9CC;" d="M256,14.631c-15.153,0-27.436,12.284-27.436,27.436v35.128h54.872V42.067
	C283.436,26.914,271.152,14.631,256,14.631z"/>
<path style="fill:#F3F5E6;" d="M379.539,58.903H132.46c-55.643,0-100.751,45.108-100.751,100.751V314.45l34.917,24.21h378.747
	l34.917-24.21V159.654C480.29,104.011,435.182,58.903,379.539,58.903z"/>
<path style="fill:#D7D9CC;" d="M61.709,159.654c0-55.643,45.108-100.75,100.751-100.75h-30c-55.643,0-100.751,45.107-100.751,100.75
	V314.45l34.917,24.209h30L61.709,314.45C61.709,314.45,61.709,159.654,61.709,159.654z"/>
<path style="fill:#FA7578;" d="M415.277,476.46c-8.42-7.492-20.029-12.792-28.536-16.265c-13.525-5.522-27.624-9.656-42.113-11.591
	c-18.893-2.523-37.15-4.333-49.042-21.015c-9.215-12.926-12.262-29.493-13.566-44.997c-1.841-21.885,0.974-43.93,4.826-65.452
	h-61.69c3.852,21.522,6.667,43.567,4.826,65.452c-1.304,15.504-4.352,32.071-13.566,44.997
	c-11.892,16.682-30.149,18.492-49.042,21.015c-14.49,1.935-28.588,6.069-42.114,11.591c-8.507,3.473-20.116,8.773-28.536,16.265
	c-8.217,7.311-3.039,20.907,7.96,20.907h302.634C418.316,497.367,423.493,483.771,415.277,476.46z"/>
<polygon style="fill:#A8503C;" points="106.156,120.552 106.156,226.219 405.844,226.219 405.844,120.552 366.254,109.736 
	138.934,109.736 "/>
<path style="fill:#FA9EB0;" d="M379.702,94.411H132.297c-14.438,0-26.142,11.704-26.142,26.142l0,0
	c0,16.804,13.752,30.877,30.553,30.555c16.282-0.311,29.384-13.607,29.384-29.963c0,16.551,13.417,29.969,29.969,29.969
	s29.969-13.417,29.969-29.969c0,16.551,13.417,29.969,29.969,29.969c16.551,0,29.969-13.417,29.969-29.969
	c0,16.551,13.417,29.969,29.969,29.969c16.551,0,29.969-13.417,29.969-29.969c0,16.356,13.103,29.652,29.384,29.963
	c16.801,0.321,30.553-13.751,30.553-30.555l0,0C405.844,106.115,394.14,94.411,379.702,94.411z"/>
<polygon style="fill:#A8503C;" points="66.626,226.977 66.626,338.659 445.373,338.659 445.373,226.977 395.34,213.307 
	108.052,213.307 "/>
<path style="fill:#FA9EB0;" d="M412.335,193.939H99.664c-18.246,0-33.038,14.792-33.038,33.038l0,0
	c0,21.237,17.38,39.022,38.613,38.616c20.577-0.394,37.136-17.197,37.136-37.868c0,20.918,16.957,37.875,37.875,37.875
	s37.875-16.957,37.875-37.875c0,20.918,16.957,37.875,37.875,37.875s37.875-16.957,37.875-37.875
	c0,20.918,16.957,37.875,37.875,37.875s37.875-16.957,37.875-37.875c0,20.671,16.559,37.474,37.136,37.868
	c21.233,0.406,38.613-17.379,38.613-38.616l0,0C445.373,208.731,430.582,193.939,412.335,193.939z"/>
<path style="fill:#F9545B;" d="M225.155,317.14c3.852,21.522,6.667,43.567,4.826,65.452c-0.285,3.392-0.662,6.833-1.16,10.277
	h54.358c-0.498-3.444-0.875-6.886-1.16-10.277c-1.841-21.885,0.974-43.93,4.826-65.452H225.155z"/>
<path style="fill:#55C2E3;" d="M480.29,314.45H31.709c-13.371,0-24.21,10.839-24.21,24.21l0,0c0,13.371,10.839,24.21,24.21,24.21
	H480.29c13.371,0,24.21-10.839,24.21-24.21l0,0C504.5,325.289,493.661,314.45,480.29,314.45z"/>
<path style="fill:#45B6D9;" d="M37.5,338.659L37.5,338.659c0-13.371,10.839-24.209,24.21-24.209h-30
	c-13.371,0-24.21,10.839-24.21,24.209l0,0c0,13.371,10.839,24.21,24.21,24.21h30C48.339,362.869,37.5,352.03,37.5,338.659z"/>
<path d="M512,338.659c0-14.901-10.334-27.426-24.209-30.806v-148.2c0-27.742-10.486-54.128-29.528-74.296
	c-2.844-3.012-7.59-3.149-10.603-0.305c-3.012,2.844-3.148,7.59-0.305,10.602c16.402,17.373,25.435,40.102,25.435,63.999v147.296
	h-19.917c0,0,0.01-80.546-0.022-80.826c-0.45-21.622-17.905-39.126-39.507-39.659c0,0,0-65.913-0.001-65.932
	c-0.011-18.541-15.097-33.622-33.641-33.622H132.298c-18.55,0-33.641,15.092-33.641,33.644v65.91
	c-21.887,0.539-39.53,18.498-39.529,40.522v79.963H39.21V159.654c0-51.418,41.832-93.25,93.25-93.25h247.08
	c16.18,0,32.12,4.209,46.095,12.174c3.599,2.051,8.179,0.796,10.229-2.803s0.796-8.179-2.803-10.229
	c-16.234-9.251-34.742-14.142-53.522-14.142h-88.604v-9.336c0-19.264-15.672-34.936-34.937-34.936
	c-19.264,0-34.936,15.672-34.936,34.936v9.336H132.46c-59.689,0-108.25,48.561-108.25,108.25v148.2
	C10.334,311.232,0,323.758,0,338.659c0,17.485,14.225,31.71,31.71,31.71h191.319c-0.042,3.979-0.204,7.827-0.521,11.595
	c-1.072,12.752-3.428,28.968-12.2,41.272c-9.542,13.385-24.462,15.359-41.739,17.645c-27.033,3.576-56.003,11.445-76.83,29.976
	c-13.124,11.677-4.545,34.011,12.944,34.011c0,0,302.035,0,302.633,0c17.54,0,26.036-22.363,12.944-34.012
	c-20.53-18.265-50.1-26.439-76.828-29.975c-17.277-2.286-32.198-4.259-41.74-17.645c-8.771-12.304-11.127-28.52-12.2-41.272
	c-0.317-3.768-0.479-7.615-0.521-11.594H480.29C497.775,370.369,512,356.144,512,338.659z M236.064,42.067
	c0-10.993,8.943-19.936,19.936-19.936s19.937,8.943,19.937,19.936v9.336h-39.872v-9.336H236.064z M113.656,150.987
	c0.044,0.033,0.09,0.064,0.134,0.098c7.306,5.57,16.784,8.238,25.988,7.335c10.695-1.053,20.119-6.669,26.281-14.854
	c6.84,9.129,17.743,15.047,30.002,15.047c12.24,0,23.127-5.898,29.969-15.002c3.421,4.552,7.853,8.303,12.96,10.916
	c5.107,2.612,10.889,4.087,17.009,4.087c11.666,0,22.966-5.684,29.969-15.002c6.842,9.104,17.729,15.002,29.969,15.002
	c11.649,0,22.978-5.672,30.002-15.047c6.299,8.368,16.003,14.065,26.993,14.932c1.677,0.132,3.358,0.146,5.037,0.05
	c7.358-0.419,14.518-3.091,20.375-7.562v35.454H113.656V150.987z M132.298,101.91h247.405c10.279,0,18.642,8.362,18.642,18.642
	c0,11.408-8.998,21.841-20.463,22.958c-12.904,1.258-24.474-9.464-24.474-22.366c0-4.142-3.358-7.5-7.5-7.5
	c-4.091,0-7.5,3.41-7.5,7.5c0,12.206-10.27,22.469-22.468,22.469c-12.389,0-22.469-10.079-22.469-22.469c0-4.142-3.358-7.5-7.5-7.5
	c-4.016,0-7.501,3.369-7.501,7.5c0,12.157-10.212,22.469-22.469,22.469c-12.242,0-22.468-10.239-22.468-22.469
	c0-4.084-3.424-7.5-7.5-7.5c-4.142,0-7.5,3.358-7.5,7.5c0,12.39-10.079,22.469-22.469,22.469c-12.389,0-22.469-10.079-22.469-22.469
	c0-4.142-3.358-7.5-7.5-7.5s-7.5,3.358-7.5,7.5c0,12.155-9.882,22.232-22.028,22.465l-0.421,0.004
	c-10.666,0-19.884-8.085-22.022-18.479C111.756,113.627,120.226,101.91,132.298,101.91z M99.665,201.439h312.671
	c14.082,0,25.538,11.457,25.538,25.538c0,0.109-0.007,0.218-0.008,0.327c-0.148,16.57-14.181,31.111-30.961,30.79
	c-16.188-0.31-29.78-14.117-29.78-30.369c0-4.077-3.428-7.5-7.5-7.5c-4.142,0-7.5,3.358-7.5,7.5
	c0,16.453-13.949,30.375-30.374,30.375c-16.51,0-30.375-13.86-30.375-30.375c0-4.142-3.358-7.5-7.5-7.5s-7.5,3.358-7.5,7.5
	c0,16.531-13.866,30.375-30.375,30.375c-16.477,0-30.375-13.831-30.375-30.375c0-4.142-3.358-7.5-7.5-7.5c-4.09,0-7.5,3.406-7.5,7.5
	c0,16.749-13.626,30.375-30.375,30.375c-16.544,0-30.374-13.857-30.374-30.375c0-4.142-3.358-7.5-7.5-7.5
	c-3.977,0-7.501,3.362-7.501,7.5c0,8.216-3.34,15.729-8.732,21.228c-5.874,5.99-14.194,9.41-22.593,9.129
	c-0.055-0.002-0.109-0.007-0.164-0.01c-16.162-0.719-29.261-15.061-29.261-31.096C74.127,212.895,85.583,201.439,99.665,201.439z
	 M15,338.659c0-9.213,7.496-16.709,16.71-16.709h77.754c4.142,0,7.5-3.358,7.5-7.5s-3.358-7.5-7.5-7.5H74.127v-45.747
	c4.696,4.31,10.283,7.63,16.44,9.655c4.747,1.561,9.731,2.309,14.726,2.233c0.031,0,0.06,0.001,0.091,0
	c13.634-0.439,27.002-7.079,35.393-18.245c0.542-0.722,1.064-1.46,1.563-2.213c4.109,6.233,9.717,11.392,16.301,14.974
	c20.458,11.13,46.67,4.456,59.484-14.919c2.011,3.041,4.381,5.825,7.045,8.296c8.1,7.513,18.937,12.115,30.829,12.115
	c14.893,0,29.498-7.746,37.875-20.412c8.127,12.289,22.071,20.412,37.875,20.412c14.853,0,29.584-7.835,37.911-20.466
	c4.097,6.179,9.669,11.309,16.191,14.893c14.064,7.729,31.462,7.265,45.114-1.157c2.463-1.519,4.781-3.297,6.908-5.259v45.839
	h-298.47c-4.142,0-7.5,3.358-7.5,7.5s3.358,7.5,7.5,7.5h340.888c9.213,0,16.709,7.496,16.709,16.709
	c0,9.214-7.496,16.71-16.709,16.71H31.71C22.496,355.369,15,347.873,15,338.659z M274.546,383.221
	c1.137,13.518,3.921,33.276,14.933,48.722c13.326,18.693,32.979,21.293,51.992,23.808c22.934,3.034,51.068,10.515,68.821,26.312
	c2.074,1.845,1.532,4.057,1.203,4.922c-0.33,0.867-1.396,2.882-4.177,2.882H104.683c-2.781,0-3.847-2.015-4.177-2.882
	c-0.329-0.865-0.871-3.076,1.205-4.923c17.765-15.805,45.831-23.27,68.825-26.312c19.006-2.514,38.66-5.114,51.986-23.808
	c11.012-15.446,13.796-35.204,14.933-48.722c0.353-4.192,0.549-8.443,0.592-12.852h35.907
	C273.996,374.778,274.193,379.028,274.546,383.221z"/>
<g>
</g>
<g>
</g>
<g>
</g>
<g>
</g>
<g>
</g>
<g>
</g>
<g>
</g>
<g>
</g>
<g>
</g>
<g>
</g>
<g>
</g>
<g>
</g>
<g>
</g>
<g>
</g>
<g>
</g>
</svg>
