<?xml version="1.0" encoding="iso-8859-1"?>
<!-- Generator: Adobe Illustrator 19.0.0, SVG Export Plug-In . SVG Version: 6.00 Build 0)  -->
<svg version="1.1" id="Capa_1" xmlns="http://www.w3.org/2000/svg" xmlns:xlink="http://www.w3.org/1999/xlink" x="0px" y="0px"
	 viewBox="0 0 512.001 512.001" style="enable-background:new 0 0 512.001 512.001;" xml:space="preserve">
<circle style="fill:#FA7578;" cx="255.999" cy="253.648" r="220.539"/>
<rect x="231" y="35.459" style="fill:#FDCA74;" width="50" height="441.087"/>
<g>
	<polygon style="fill:#D9A856;" points="124.001,338 45.459,338 75.459,388 124.001,388 140.601,368.361 	"/>
	<polygon style="fill:#D9A856;" points="124.001,231.001 35.459,231.001 35.459,281 124.001,281 140.601,261.361 	"/>
	<polygon style="fill:#D9A856;" points="124.001,124.001 75.459,124.001 75.459,174.001 124.001,174.001 140.601,154.362 	"/>
	<polygon style="fill:#D9A856;" points="388.001,338 466.543,338 436.543,388 388.001,388 371.401,368.361 	"/>
	<polygon style="fill:#D9A856;" points="388.001,231.001 476.543,231.001 476.543,281 388.001,281 371.401,261.361 	"/>
	<polygon style="fill:#D9A856;" points="388.001,124.001 436.543,124.001 436.543,174.001 388.001,174.001 371.401,154.362 	"/>
	<polygon style="fill:#D9A856;" points="338,124.001 174.001,124.001 149.001,154.362 174.001,174.001 338,174.001 363,154.362 	"/>
	<polygon style="fill:#D9A856;" points="338,232.448 174.001,232.448 149.001,262.808 174.001,282.447 338,282.447 363,262.808 	"/>
	<polygon style="fill:#D9A856;" points="338,338 174.001,338 149.001,368.361 174.001,388 338,388 363,368.361 	"/>
</g>
<g>
	<polygon style="fill:#FDCA74;" points="174.001,476.542 124.001,436.542 124.001,75.459 174.001,75.459 	"/>
	<polygon style="fill:#FDCA74;" points="388,436.542 338,476.542 338,75.459 388,75.459 	"/>
</g>
<g>
	<path style="fill:#E6A537;" d="M124.001,154.362c1.313-3.827,2.475-7.716,3.443-11.673c4.038-16.502,18.141-28.335,35.093-29.446
		c3.851-0.252,7.673-0.689,11.464-1.266V75.459h-50C124.001,75.459,124.001,154.362,124.001,154.362z"/>
	<path style="fill:#E6A537;" d="M174.001,412.685c-12.819-18.446-29.969-33.298-50-43.339v67.197l50,40V412.685z"/>
	<path style="fill:#E6A537;" d="M281,427.389c-8.232-1.562-16.598-2.367-25-2.367c-8.403,0-16.768,0.805-25,2.367v49.153h50V427.389
		z"/>
	<path style="fill:#E6A537;" d="M231.001,89.041c0.699-0.492,1.404-0.973,2.095-1.479c6.69-4.905,14.61-7.498,22.905-7.498
		c8.296,0,16.217,2.593,22.906,7.498c0.69,0.506,1.395,0.987,2.094,1.479V35.459h-50V89.041z"/>
	<path style="fill:#E6A537;" d="M338,111.977c3.791,0.577,7.612,1.013,11.464,1.266c16.952,1.111,31.055,12.945,35.094,29.448
		c0.968,3.956,2.13,7.844,3.442,11.67V75.459h-50L338,111.977L338,111.977z"/>
	<path style="fill:#E6A537;" d="M388,369.346c-20.032,10.042-37.182,24.895-50,43.339v63.857l50-40V369.346z"/>
</g>
<path style="fill:#FDCA74;" d="M304.383,502.362c-0.003,0-0.002,0-0.004,0c-10.326,0-20.601-1.47-30.544-4.368
	c-11.594-3.38-24.077-3.38-35.671,0c-9.944,2.899-20.221,4.368-30.545,4.368c-36.536,0-70.468-18.139-90.768-48.522
	c-6.753-10.105-16.202-18.035-27.326-22.929c-21.397-9.414-38.885-25.092-50.573-45.336c-11.688-20.246-16.521-43.229-13.976-66.466
	c1.323-12.081-0.818-24.229-6.194-35.13c-10.339-20.966-13.659-44.216-9.599-67.238c4.059-23.021,15.13-43.734,32.017-59.899
	c8.78-8.404,14.947-19.087,17.836-30.892c5.556-22.707,17.958-42.651,35.866-57.678c17.907-15.026,39.702-23.776,63.029-25.305
	c12.128-0.795,23.719-5.014,33.521-12.201C210.303,16.946,232.624,9.639,256,9.639c23.377,0,45.697,7.307,64.55,21.13
	c9.801,7.187,21.392,11.406,33.519,12.201c23.327,1.529,45.122,10.279,63.029,25.305c17.908,15.026,30.31,34.97,35.866,57.677
	c2.89,11.806,9.057,22.488,17.836,30.892c16.887,16.166,27.958,36.879,32.017,59.9c4.06,23.022,0.74,46.272-9.599,67.238
	c-5.376,10.9-7.517,23.048-6.195,35.13c2.545,23.237-2.288,46.221-13.976,66.465c-11.688,20.246-29.175,35.923-50.573,45.337
	c-11.125,4.895-20.574,12.824-27.326,22.928C374.848,484.222,340.916,502.362,304.383,502.362z M256.001,450.022
	c10.341,0,20.619,1.467,30.548,4.362c5.81,1.694,11.81,2.553,17.832,2.553c21.331,0.001,41.144-10.591,52.998-28.333
	c11.563-17.307,27.748-30.888,46.802-39.271c25.586-11.258,40.731-37.491,37.687-65.278c-2.266-20.693,1.403-41.498,10.609-60.167
	c12.363-25.07,7.103-54.901-13.089-74.231c-15.036-14.393-25.599-32.688-30.547-52.909c-6.644-27.153-29.849-46.624-57.742-48.452
	c-20.771-1.361-40.623-8.587-57.409-20.895c-11.008-8.071-24.04-12.337-37.689-12.337c-13.649,0-26.681,4.266-37.688,12.337
	c-16.788,12.309-36.64,19.535-57.411,20.896c-27.894,1.828-51.098,21.299-57.742,48.451c-4.948,20.22-15.511,38.516-30.548,52.91
	c-20.192,19.33-25.452,49.161-13.089,74.231c9.207,18.67,12.875,39.475,10.609,60.167c-3.044,27.787,12.102,54.02,37.688,65.278
	c19.053,8.383,35.237,21.963,46.802,39.272c11.854,17.741,31.666,28.333,52.998,28.333c6.021,0,12.021-0.859,17.832-2.553
	C235.382,451.489,245.66,450.022,256.001,450.022z"/>
<path d="M377.272,464.071c-18.993,19.567-45.561,30.79-72.893,30.79c-9.612,0-19.182-1.369-28.444-4.068
	c-13.042-3.802-26.829-3.803-39.869,0c-9.261,2.699-18.832,4.068-28.446,4.068c-34.025,0-65.626-16.893-84.533-45.189
	c-7.547-11.294-18.109-20.156-30.542-25.626c-19.926-8.768-36.213-23.368-47.099-42.222c-10.885-18.854-15.386-40.259-13.016-61.9
	c1.479-13.503-0.915-27.081-6.923-39.263c-9.628-19.526-12.72-41.179-8.939-62.619c3.78-21.439,14.09-40.729,29.817-55.784
	c9.813-9.394,16.706-21.333,19.935-34.527c5.175-21.148,16.726-39.722,33.402-53.715c3.272-2.746,6.797-5.338,10.474-7.705
	c3.483-2.241,4.49-6.882,2.248-10.365s-6.883-4.49-10.365-2.248c-4.207,2.707-8.244,5.677-11.999,8.828
	C70.945,78.587,57.69,99.901,51.751,124.169c-2.548,10.417-7.99,19.842-15.737,27.257c-18.047,17.276-29.879,39.412-34.216,64.015
	c-4.338,24.603-0.791,49.45,10.258,71.857c4.743,9.617,6.633,20.335,5.465,30.996c-2.72,24.833,2.445,49.396,14.937,71.033
	c12.492,21.636,31.181,38.391,54.048,48.451c9.815,4.319,18.152,11.314,24.111,20.23c21.695,32.471,57.958,51.856,97.003,51.856
	c11.035,0,22.018-1.57,32.645-4.667c10.294-3.002,21.177-3.001,31.473,0c10.627,3.097,21.609,4.667,32.646,4.667
	c31.36,0,61.85-12.882,83.652-35.343c2.885-2.972,2.814-7.72-0.158-10.605C384.907,461.029,380.158,461.099,377.272,464.071z"/>
<path d="M475.986,151.424c-7.746-7.414-13.188-16.839-15.737-27.256c-5.938-24.268-19.192-45.582-38.33-61.64
	c-19.136-16.059-42.428-25.411-67.359-27.044c-10.701-0.702-20.928-4.424-29.576-10.765C304.837,9.947,280.983,2.139,256.001,2.139
	c-24.983,0-48.838,7.809-68.984,22.581c-8.648,6.341-18.875,10.064-29.576,10.765c-7.873,0.516-15.705,1.828-23.28,3.898
	c-3.996,1.092-6.349,5.216-5.257,9.212c1.092,3.996,5.22,6.348,9.212,5.257c6.605-1.806,13.437-2.95,20.306-3.4
	c13.555-0.888,26.51-5.604,37.465-13.636c17.556-12.874,38.343-19.678,60.114-19.678c21.77,0,42.558,6.805,60.115,19.677
	c10.954,8.033,23.909,12.749,37.464,13.637c21.726,1.424,42.023,9.573,58.698,23.567c16.678,13.993,28.228,32.567,33.402,53.714
	c3.23,13.195,10.123,25.135,19.935,34.527c15.726,15.054,26.037,34.343,29.817,55.784c3.781,21.438,0.689,43.092-8.94,62.619
	c-6.008,12.184-8.402,25.761-6.923,39.263c2.37,21.641-2.131,43.045-13.016,61.899c-10.886,18.855-27.172,33.456-47.097,42.222
	c-9.143,4.022-17.192,9.804-23.924,17.185c-2.791,3.061-2.573,7.804,0.487,10.596c3.03,2.763,7.833,2.541,10.596-0.487
	c5.313-5.825,11.665-10.388,18.881-13.563c22.866-10.061,41.555-26.815,54.047-48.452c12.492-21.635,17.657-46.198,14.937-71.032
	c-1.167-10.659,0.722-21.377,5.465-30.996c11.05-22.408,14.597-47.255,10.259-71.857
	C505.865,190.836,494.032,168.699,475.986,151.424z"/>
<path d="M407.225,396.247c27.6-13.466,45.515-41.815,42.098-73.01c-2.095-19.128,1.369-38.776,9.88-56.033
	c13.566-27.504,7.686-61.604-14.629-82.965c-13.771-13.182-23.872-30.575-28.448-49.274c-4.259-17.404-15.094-32.87-30.094-42.689
	c-13.962-9.164-30.621-9.964-46.558-13.004c-14.916-2.845-29.096-8.935-41.349-17.92c-12.178-8.929-27.025-13.789-42.124-13.789
	c-15.054,0-29.984,4.888-42.123,13.789c-34.919,25.603-90.637,14.998-112.523,58.729c-5.575,11.14-7.875,23.526-12.877,34.894
	c-4.851,11.024-12.378,20.962-21.051,29.264c-12.866,12.315-20.594,29.311-21.665,47.068c-1.271,21.086,9.475,36.718,14.509,56.321
	c2.968,11.559,3.705,23.76,2.408,35.61c-1.878,17.149,2.849,35.191,13.04,49.421c11.453,15.993,28.389,21.358,44.154,31.762
	c14.882,9.82,24.35,26.027,36.919,38.604c13.519,13.528,31.605,21.413,50.831,21.413c16.411,0,32.115-6.064,48.499-6.313
	c16.324-0.248,31.911,6.313,48.264,6.313c14.814,0,28.971-4.574,40.769-12.807c11.302-7.887,18.332-19.981,27.339-30.111
	C382.097,410.717,394.294,402.556,407.225,396.247z M372.481,400.45c-4.583,3.907-8.865,8.17-12.787,12.741
	c-3.905,4.55-7.123,9.587-10.775,14.329c-1.078,1.4-2.227,2.729-3.418,4.009V95.327c0.131,0.015,0.26,0.025,0.39,0.039
	c1.575,0.167,3.154,0.311,4.734,0.415c10.743,0.704,21.231,4.525,29.875,10.945v287.479c-0.014,0.01-0.028,0.021-0.042,0.031
	C377.709,396.189,375.047,398.263,372.481,400.45z M273.478,443.852c-5.839-0.651-11.583-1.33-17.478-1.33
	c-5.663,0-11.977-0.047-17.5,1.333V395.5h35C273.501,395.5,273.501,443.854,273.478,443.852z M181.502,380.5v-35h148.999v35H181.502
	z M163.089,427.528c-2.729-3.549-5.123-7.342-7.907-10.85c-6.771-8.534-14.754-16.112-23.628-22.432
	c-0.018-0.013-0.035-0.026-0.052-0.039v-287.48c6.194-4.597,13.305-7.884,20.824-9.616c4.655-1.072,9.444-1.254,14.176-1.783V431.53
	C165.312,430.251,164.165,428.925,163.089,427.528z M104.16,378.977c-6.213-3.784-11.69-8.776-16.006-14.634
	c-4.077-5.534-7.114-11.813-8.919-18.445c-0.036-0.133-0.074-0.265-0.11-0.398h37.376v35h-9.68
	C105.921,380.017,105.033,379.509,104.16,378.977z M65.131,258.155c-2.703-6.203-4.291-12.897-4.644-19.655h56.016v35H71.68
	c-0.034-0.096-0.071-0.19-0.105-0.286C69.743,268.052,67.316,263.168,65.131,258.155z M99.781,166.223
	c5.242-9.687,8.292-19.999,11.436-30.496c0.42-1.403,0.891-2.794,1.419-4.16c0.009-0.022,0.018-0.044,0.026-0.066h3.84v35H99.636
	C99.686,166.409,99.731,166.315,99.781,166.223z M75.855,288.5h40.648v42H77.264c0.02-1.865,0.12-3.742,0.327-5.629
	C78.929,312.648,78.32,300.39,75.855,288.5z M238.502,65.34c1.403-0.46,2.821-0.864,4.254-1.21c8.658-2.094,17.837-2.088,26.494,0
	c1.432,0.346,2.85,0.749,4.252,1.209V116.5h-35L238.502,65.34L238.502,65.34z M330.501,131.501v35H181.502v-35H330.501z
	 M181.502,181.501h42v42h-42V181.501z M273.501,223.501h-35v-42h35V223.501z M181.502,238.501h148.999v35H181.502L181.502,238.501
	L181.502,238.501z M238.502,288.5h35v42h-35L238.502,288.5L238.502,288.5z M288.501,288.5h42v42h-42V288.5z M330.501,223.501h-42
	v-42h42V223.501z M181.502,288.5h42v42h-42V288.5z M402.576,142.399c2.321,8.262,5.568,16.279,9.648,23.829
	c0.049,0.091,0.094,0.183,0.143,0.273h-16.866v-35h3.839c0.009,0.022,0.018,0.045,0.027,0.067
	C400.723,135.033,401.56,138.783,402.576,142.399z M451.514,238.524c-0.231,6.515-1.838,12.975-4.37,18.969
	c-2.256,5.343-4.898,10.528-6.822,16.008H395.5v-35C395.501,238.501,451.515,238.501,451.514,238.524z M432.77,345.891
	c-2.668,9.76-8.027,18.772-15.356,25.75c-3.654,3.479-7.787,6.474-12.234,8.859h-9.68v-35h37.375
	C432.84,345.63,432.805,345.761,432.77,345.891z M395.501,330.5v-42h40.647c-2.465,11.891-3.074,24.148-1.735,36.371
	c0.207,1.887,0.307,3.764,0.327,5.629H395.501z M450.26,223.501h-54.76v-42h26.59c3.665,4.807,7.701,9.353,12.112,13.574
	C442.48,202.999,447.909,212.926,450.26,223.501z M330.501,92.685v23.816h-42V72.919c0.251,0.178,0.506,0.348,0.754,0.531
	C301.685,82.563,315.689,89.064,330.501,92.685z M222.748,73.45c0.248-0.182,0.503-0.353,0.753-0.53v43.582h-42V92.685
	C196.314,89.064,210.318,82.563,222.748,73.45z M77.8,195.075c4.411-4.222,8.447-8.768,12.112-13.575h26.591v42H61.742
	C64.093,212.926,69.522,203,77.8,195.075z M207.622,449.436c-9.258,0-18.187-2.272-26.12-6.433V395.5h42v51.644
	c-0.049,0.014-0.098,0.026-0.146,0.04C218.226,448.677,212.932,449.436,207.622,449.436z M304.381,449.436
	c-5.311,0-10.604-0.758-15.733-2.253c-0.049-0.014-0.098-0.026-0.146-0.04V395.5h42v47.505
	C322.568,447.165,313.639,449.436,304.381,449.436z"/>
<g>
</g>
<g>
</g>
<g>
</g>
<g>
</g>
<g>
</g>
<g>
</g>
<g>
</g>
<g>
</g>
<g>
</g>
<g>
</g>
<g>
</g>
<g>
</g>
<g>
</g>
<g>
</g>
<g>
</g>
</svg>
